<svg id="Logo_Seniv_-_transparent_letters_footer" data-name="Logo Seniv - transparent letters_footer" xmlns="http://www.w3.org/2000/svg" width="211.058" height="136.103" viewBox="0 0 211.058 136.103">
  <path id="Path_1" data-name="Path 1" d="M562.73,362.653V331.438h8.623v31.215Zm8.623-42.443H562.73v8.623h8.623Z" transform="translate(-446.274 -273.436)" fill="#fff"/>
  <path id="Path_2" data-name="Path 2" d="M615.591,359l3.743,14.49c.68,2.605,1.193,5.106,1.589,7.6h.171c.454-2.556.906-4.921,1.531-7.6L626.2,359h9.074l-10.325,31.215h-8.62L606.23,359Z" transform="translate(-477.183 -300.998)" fill="#fff"/>
  <path id="Path_3" data-name="Path 3" d="M858.7,400.809a5.157,5.157,0,0,1-.324,2.2,1.106,1.106,0,0,1-1.06.6q-1.378,0-1.378-2.481,0-2.646,1.433-2.643Q858.7,398.49,858.7,400.809Z" transform="translate(-654.614 -329.058)" fill="#fff"/>
  <path id="Path_4" data-name="Path 4" d="M743.3,371.27a1.421,1.421,0,0,0-1.276-.7h-.758v4.825h.758a1.485,1.485,0,0,0,1.219-.657,2.894,2.894,0,0,0,.5-1.792A3.1,3.1,0,0,0,743.3,371.27Zm0,0a1.421,1.421,0,0,0-1.276-.7h-.758v4.825h.758a1.485,1.485,0,0,0,1.219-.657,2.894,2.894,0,0,0,.5-1.792A3.1,3.1,0,0,0,743.3,371.27Zm0,0a1.421,1.421,0,0,0-1.276-.7h-.758v4.825h.758a1.485,1.485,0,0,0,1.219-.657,2.894,2.894,0,0,0,.5-1.792A3.1,3.1,0,0,0,743.3,371.27Zm0,0a1.421,1.421,0,0,0-1.276-.7h-.758v4.825h.758a1.485,1.485,0,0,0,1.219-.657,2.894,2.894,0,0,0,.5-1.792A3.1,3.1,0,0,0,743.3,371.27Zm0,0a1.421,1.421,0,0,0-1.276-.7h-.758v4.825h.758a1.485,1.485,0,0,0,1.219-.657,2.894,2.894,0,0,0,.5-1.792A3.1,3.1,0,0,0,743.3,371.27Zm15.292,8.5c-.463,0-.692.437-.692,1.305q0,1.23.663,1.227a.532.532,0,0,0,.512-.289,2.6,2.6,0,0,0,.156-1.088Q759.228,379.774,758.589,379.774Zm0,0c-.463,0-.692.437-.692,1.305q0,1.23.663,1.227a.532.532,0,0,0,.512-.289,2.6,2.6,0,0,0,.156-1.088Q759.228,379.774,758.589,379.774Zm-15.292-8.5a1.421,1.421,0,0,0-1.276-.7h-.758v4.825h.758a1.485,1.485,0,0,0,1.219-.657,2.894,2.894,0,0,0,.5-1.792A3.1,3.1,0,0,0,743.3,371.27Zm0,0a1.421,1.421,0,0,0-1.276-.7h-.758v4.825h.758a1.485,1.485,0,0,0,1.219-.657,2.894,2.894,0,0,0,.5-1.792A3.1,3.1,0,0,0,743.3,371.27Zm15.292,8.5c-.463,0-.692.437-.692,1.305q0,1.23.663,1.227a.532.532,0,0,0,.512-.289,2.6,2.6,0,0,0,.156-1.088Q759.228,379.774,758.589,379.774Zm0,0c-.463,0-.692.437-.692,1.305q0,1.23.663,1.227a.532.532,0,0,0,.512-.289,2.6,2.6,0,0,0,.156-1.088Q759.228,379.774,758.589,379.774Zm-15.292-8.5a1.421,1.421,0,0,0-1.276-.7h-.758v4.825h.758a1.485,1.485,0,0,0,1.219-.657,2.894,2.894,0,0,0,.5-1.792A3.1,3.1,0,0,0,743.3,371.27Zm0,0a1.421,1.421,0,0,0-1.276-.7h-.758v4.825h.758a1.485,1.485,0,0,0,1.219-.657,2.894,2.894,0,0,0,.5-1.792A3.1,3.1,0,0,0,743.3,371.27Zm15.292,8.5c-.463,0-.692.437-.692,1.305q0,1.23.663,1.227a.532.532,0,0,0,.512-.289,2.6,2.6,0,0,0,.156-1.088Q759.228,379.774,758.589,379.774Zm0,0c-.463,0-.692.437-.692,1.305q0,1.23.663,1.227a.532.532,0,0,0,.512-.289,2.6,2.6,0,0,0,.156-1.088Q759.228,379.774,758.589,379.774Zm-15.292-8.5a1.421,1.421,0,0,0-1.276-.7h-.758v4.825h.758a1.485,1.485,0,0,0,1.219-.657,2.894,2.894,0,0,0,.5-1.792A3.1,3.1,0,0,0,743.3,371.27Zm-17.512,8.571h-.515v.868h.469c.414,0,.619-.145.619-.437S726.167,379.841,725.785,379.841Zm14.314.339a.683.683,0,0,0-.617-.347h-.365v2.385h.365a.709.709,0,0,0,.579-.324,1.447,1.447,0,0,0,.24-.886,1.557,1.557,0,0,0-.2-.819Zm3.2-8.918a1.421,1.421,0,0,0-1.276-.7h-.758v4.825h.758a1.485,1.485,0,0,0,1.219-.657,2.894,2.894,0,0,0,.5-1.792,3.1,3.1,0,0,0-.44-1.664Zm15.292,8.5c-.463,0-.692.437-.692,1.305q0,1.23.663,1.227a.532.532,0,0,0,.512-.289,2.6,2.6,0,0,0,.156-1.088q0-1.146-.64-1.146Zm0,0c-.463,0-.692.437-.692,1.305q0,1.23.663,1.227a.532.532,0,0,0,.512-.289,2.6,2.6,0,0,0,.156-1.088q0-1.146-.64-1.146Zm-15.292-8.5a1.421,1.421,0,0,0-1.276-.7h-.758v4.825h.758a1.485,1.485,0,0,0,1.219-.657,2.894,2.894,0,0,0,.5-1.792,3.1,3.1,0,0,0-.44-1.664Zm-3.2,8.927a.683.683,0,0,0-.617-.347h-.365v2.385h.365a.71.71,0,0,0,.579-.324,1.447,1.447,0,0,0,.24-.886,1.557,1.557,0,0,0-.2-.828Zm-14.314-.347h-.515v.868h.469c.414,0,.619-.145.619-.437S726.167,379.841,725.785,379.841Zm0,0h-.515v.868h.469c.414,0,.619-.145.619-.437S726.167,379.841,725.785,379.841Zm4.547-.072h-.646v.839h.6a.772.772,0,0,0,.425-.1.356.356,0,0,0,.162-.313c0-.272-.179-.414-.541-.414Zm4.631,0c-.46,0-.689.437-.689,1.305q0,1.23.663,1.227a.533.533,0,0,0,.512-.289,2.6,2.6,0,0,0,.156-1.088q-.005-1.149-.643-1.149Zm5.135.414a.683.683,0,0,0-.617-.347h-.365v2.385h.365a.709.709,0,0,0,.579-.324,1.447,1.447,0,0,0,.24-.886,1.556,1.556,0,0,0-.2-.822Zm3.2-8.918a1.421,1.421,0,0,0-1.276-.7h-.758v4.825h.758a1.485,1.485,0,0,0,1.219-.657,2.894,2.894,0,0,0,.5-1.792,3.1,3.1,0,0,0-.44-1.667Zm15.292,8.5c-.463,0-.692.437-.692,1.305q0,1.23.663,1.227a.532.532,0,0,0,.512-.289,2.6,2.6,0,0,0,.156-1.088q0-1.149-.64-1.149Zm0,0c-.463,0-.692.437-.692,1.305q0,1.23.663,1.227a.532.532,0,0,0,.512-.289,2.6,2.6,0,0,0,.156-1.088q0-1.149-.64-1.149Zm-15.292-8.5a1.421,1.421,0,0,0-1.276-.7h-.758v4.825h.758a1.485,1.485,0,0,0,1.219-.657,2.894,2.894,0,0,0,.5-1.792,3.1,3.1,0,0,0-.44-1.667Zm-3.2,8.924a.683.683,0,0,0-.617-.347h-.365v2.385h.365a.71.71,0,0,0,.579-.324,1.447,1.447,0,0,0,.24-.886,1.557,1.557,0,0,0-.2-.828Zm-5.135-.414c-.46,0-.689.437-.689,1.305q0,1.23.663,1.227a.532.532,0,0,0,.512-.289,2.6,2.6,0,0,0,.156-1.088Q735.6,379.774,734.963,379.774Zm-4.631,0h-.646v.839h.6a.773.773,0,0,0,.425-.1.356.356,0,0,0,.162-.313c0-.278-.179-.42-.541-.42Zm-4.547.072h-.515v.863h.469c.414,0,.619-.145.619-.437s-.191-.431-.573-.431ZM761.072,359H727.238a7.688,7.688,0,0,0-7.688,7.685V383.7a7.688,7.688,0,0,0,7.688,7.688h33.834a7.688,7.688,0,0,0,7.688-7.688V366.685A7.688,7.688,0,0,0,761.072,359Zm-13.054,9.552h7.141V370.6h-4.278v1.288h3.473v1.971h-3.473v1.447h4.281v2.122h-7.141Zm-14.241,0h2.915v8.886H733.78Zm-6.8,0,1.5,4.843c.1.289.194.579.272.848l1.757-5.691h2.4l-2.947,8.886h-2.97l-3.08-8.886Zm.321,12.7a1.821,1.821,0,0,1-1.219.388h-.793v1.595H723.86v-4.394h1.957a3,3,0,0,1,1.112.159,1.342,1.342,0,0,1,.6.492,1.3,1.3,0,0,1,.223.744,1.26,1.26,0,0,1-.452,1.013Zm3.5,1.983-.669-1.679h-.443v1.679h-1.407v-4.394h2.4a1.9,1.9,0,0,1,1.23.356,1.158,1.158,0,0,1,.437.938,1.329,1.329,0,0,1-.162.669,1.346,1.346,0,0,1-.648.515l.828,1.913Zm5.711-.562a2.073,2.073,0,0,1-1.566.628,2.119,2.119,0,0,1-1.575-.614,2.236,2.236,0,0,1-.608-1.644,2.316,2.316,0,0,1,.579-1.627,2.066,2.066,0,0,1,1.615-.643,2.107,2.107,0,0,1,1.557.6,2.191,2.191,0,0,1,.6,1.615,2.316,2.316,0,0,1-.6,1.676Zm4.657-.055a2.163,2.163,0,0,1-1.6.617h-1.858v-4.394h1.771a2.2,2.2,0,0,1,1.737.657,2.238,2.238,0,0,1,.579,1.517,2.165,2.165,0,0,1-.628,1.6Zm-2.819-5.184v-8.886h3.673a4.556,4.556,0,0,1,3.581,1.329,4.467,4.467,0,0,1,1.19,3.071,4.325,4.325,0,0,1-1.276,3.239,4.542,4.542,0,0,1-3.314,1.247Zm7.74,4.319a1.355,1.355,0,0,1-.51,1.187,2.252,2.252,0,0,1-1.334.362,2.484,2.484,0,0,1-1.389-.347,1.253,1.253,0,0,1-.524-1.132v-2.981h1.427v2.822a.656.656,0,0,0,.139.46.593.593,0,0,0,.443.145.751.751,0,0,0,.417-.1.419.419,0,0,0,.194-.237,2.757,2.757,0,0,0,.032-.515v-2.57h1.106Zm2.162.275a.55.55,0,0,0,.486.258c.371,0,.579-.24.622-.727l1.285.075a1.783,1.783,0,0,1-.622,1.239,2.214,2.214,0,0,1-2.813-.162,2.251,2.251,0,0,1-.579-1.635,2.474,2.474,0,0,1,.544-1.667,2.188,2.188,0,0,1,2.912-.151,1.951,1.951,0,0,1,.553,1.282l-1.311.067a.93.93,0,0,0-.177-.637.544.544,0,0,0-.414-.2c-.443,0-.663.429-.663,1.279a1.9,1.9,0,0,0,.179.973Zm5.737-2.133h-.949v3.34H751.7V379.9h-.949v-1.051h3.23Zm1.8,3.34h-1.4v-4.394h1.4Zm4.342-.562a2.078,2.078,0,0,1-1.566.628,2.11,2.11,0,0,1-1.575-.614,2.223,2.223,0,0,1-.611-1.644,2.316,2.316,0,0,1,.579-1.627,2.066,2.066,0,0,1,1.615-.643,2.1,2.1,0,0,1,1.557.6,2.19,2.19,0,0,1,.6,1.615,2.316,2.316,0,0,1-.6,1.676Zm.29-5.1a4.3,4.3,0,0,1-4.527-4.57,4.655,4.655,0,0,1,1.21-3.294,4.322,4.322,0,0,1,3.346-1.3,4.415,4.415,0,0,1,3.23,1.224,4.365,4.365,0,0,1,1.25,3.268,4.611,4.611,0,0,1-1.259,3.389,4.362,4.362,0,0,1-3.248,1.276Zm4.828,5.665H764.1l-1.256-1.939a7.8,7.8,0,0,1-.486-.909,2.87,2.87,0,0,1,.11.721v2.127h-1.138v-4.394h1.326l1.068,1.609a6.2,6.2,0,0,1,.484.842,6.071,6.071,0,0,1-.107-1.158v-1.3h1.143Zm1.708-16.742a8.7,8.7,0,0,0-7-5.627,4.884,4.884,0,0,1,4.411.35,5.4,5.4,0,0,1,2.59,5.274Zm-8.368,13.28c-.463,0-.692.437-.692,1.305q0,1.23.663,1.227a.532.532,0,0,0,.512-.289,2.6,2.6,0,0,0,.156-1.088q0-1.158-.637-1.158Zm-16.565-9.2h-.758V375.4h.758a1.485,1.485,0,0,0,1.219-.657,2.894,2.894,0,0,0,.5-1.792,3.1,3.1,0,0,0-.44-1.673A1.421,1.421,0,0,0,742.02,370.578Zm-2.539,9.263h-.365v2.385h.365a.71.71,0,0,0,.579-.324,1.447,1.447,0,0,0,.24-.886,1.555,1.555,0,0,0-.211-.828A.683.683,0,0,0,739.482,379.841Zm-4.518-.067c-.46,0-.689.437-.689,1.305q0,1.23.663,1.227a.532.532,0,0,0,.512-.289,2.6,2.6,0,0,0,.156-1.088Q735.6,379.774,734.963,379.774Zm-4.631,0h-.646v.839h.6a.773.773,0,0,0,.425-.1.355.355,0,0,0,.162-.313c0-.278-.179-.42-.541-.42Zm-4.547.072h-.515v.863h.469c.414,0,.619-.145.619-.437s-.191-.431-.573-.431Zm0,0h-.515v.863h.469c.414,0,.619-.145.619-.437s-.191-.431-.573-.431Zm4.547-.072h-.646v.839h.6a.773.773,0,0,0,.425-.1.355.355,0,0,0,.162-.313c0-.278-.179-.42-.541-.42Zm9.766.411a.683.683,0,0,0-.617-.347h-.365v2.385h.365a.71.71,0,0,0,.579-.324,1.447,1.447,0,0,0,.24-.886,1.556,1.556,0,0,0-.2-.825Zm3.2-8.918a1.421,1.421,0,0,0-1.276-.7h-.758v4.825h.758a1.485,1.485,0,0,0,1.219-.657,2.894,2.894,0,0,0,.5-1.792,3.1,3.1,0,0,0-.44-1.67Zm15.292,8.5c-.463,0-.692.437-.692,1.305q0,1.23.663,1.227a.532.532,0,0,0,.512-.29,2.6,2.6,0,0,0,.156-1.088q0-1.152-.64-1.152Zm0,0c-.463,0-.692.437-.692,1.305q0,1.23.663,1.227a.532.532,0,0,0,.512-.29,2.6,2.6,0,0,0,.156-1.088q0-1.152-.64-1.152Zm-15.292-8.5a1.421,1.421,0,0,0-1.276-.7h-.758v4.825h.758a1.485,1.485,0,0,0,1.219-.657,2.894,2.894,0,0,0,.5-1.792,3.1,3.1,0,0,0-.44-1.67Zm-3.2,8.921a.683.683,0,0,0-.617-.347h-.365v2.385h.365a.71.71,0,0,0,.579-.324,1.447,1.447,0,0,0,.24-.886,1.557,1.557,0,0,0-.2-.828Zm-9.766-.411h-.646v.839h.6a.772.772,0,0,0,.425-.1.355.355,0,0,0,.162-.313C730.873,379.919,730.694,379.777,730.332,379.777Zm-4.547.072h-.515v.86h.469c.414,0,.619-.145.619-.437s-.191-.431-.573-.431Zm14.314.339a.683.683,0,0,0-.617-.347h-.365v2.385h.365a.71.71,0,0,0,.579-.324,1.447,1.447,0,0,0,.24-.886,1.557,1.557,0,0,0-.2-.828Zm3.2-8.918a1.421,1.421,0,0,0-1.276-.7h-.758v4.825h.758a1.485,1.485,0,0,0,1.219-.657,2.894,2.894,0,0,0,.5-1.792A3.1,3.1,0,0,0,743.3,371.27Zm15.292,8.5c-.463,0-.692.437-.692,1.305q0,1.23.663,1.227a.532.532,0,0,0,.512-.289,2.6,2.6,0,0,0,.156-1.088Q759.228,379.774,758.589,379.774Zm0,0c-.463,0-.692.437-.692,1.305q0,1.23.663,1.227a.532.532,0,0,0,.512-.289,2.6,2.6,0,0,0,.156-1.088Q759.228,379.774,758.589,379.774Zm-15.292-8.5a1.421,1.421,0,0,0-1.276-.7h-.758v4.825h.758a1.485,1.485,0,0,0,1.219-.657,2.894,2.894,0,0,0,.5-1.792A3.1,3.1,0,0,0,743.3,371.27Zm-3.2,8.918a.683.683,0,0,0-.617-.347h-.365v2.385h.365a.71.71,0,0,0,.579-.324,1.447,1.447,0,0,0,.24-.886,1.557,1.557,0,0,0-.2-.828Zm3.2-8.918a1.421,1.421,0,0,0-1.276-.7h-.758v4.825h.758a1.485,1.485,0,0,0,1.219-.657,2.894,2.894,0,0,0,.5-1.792A3.1,3.1,0,0,0,743.3,371.27Zm15.292,8.5c-.463,0-.692.437-.692,1.305q0,1.23.663,1.227a.532.532,0,0,0,.512-.289,2.6,2.6,0,0,0,.156-1.088Q759.228,379.774,758.589,379.774Zm0,0c-.463,0-.692.437-.692,1.305q0,1.23.663,1.227a.532.532,0,0,0,.512-.289,2.6,2.6,0,0,0,.156-1.088Q759.228,379.774,758.589,379.774Zm-15.292-8.5a1.421,1.421,0,0,0-1.276-.7h-.758v4.825h.758a1.485,1.485,0,0,0,1.219-.657,2.894,2.894,0,0,0,.5-1.792A3.1,3.1,0,0,0,743.3,371.27Zm0,0a1.421,1.421,0,0,0-1.276-.7h-.758v4.825h.758a1.485,1.485,0,0,0,1.219-.657,2.894,2.894,0,0,0,.5-1.792A3.1,3.1,0,0,0,743.3,371.27Zm15.292,8.5c-.463,0-.692.437-.692,1.305q0,1.23.663,1.227a.532.532,0,0,0,.512-.289,2.6,2.6,0,0,0,.156-1.088Q759.228,379.774,758.589,379.774Zm0,0c-.463,0-.692.437-.692,1.305q0,1.23.663,1.227a.532.532,0,0,0,.512-.289,2.6,2.6,0,0,0,.156-1.088Q759.228,379.774,758.589,379.774Zm-15.292-8.5a1.421,1.421,0,0,0-1.276-.7h-.758v4.825h.758a1.485,1.485,0,0,0,1.219-.657,2.894,2.894,0,0,0,.5-1.792A3.1,3.1,0,0,0,743.3,371.27Zm0,0a1.421,1.421,0,0,0-1.276-.7h-.758v4.825h.758a1.485,1.485,0,0,0,1.219-.657,2.894,2.894,0,0,0,.5-1.792A3.1,3.1,0,0,0,743.3,371.27Zm0,0a1.421,1.421,0,0,0-1.276-.7h-.758v4.825h.758a1.485,1.485,0,0,0,1.219-.657,2.894,2.894,0,0,0,.5-1.792A3.1,3.1,0,0,0,743.3,371.27Zm0,0a1.421,1.421,0,0,0-1.276-.7h-.758v4.825h.758a1.485,1.485,0,0,0,1.219-.657,2.894,2.894,0,0,0,.5-1.792A3.1,3.1,0,0,0,743.3,371.27Zm0,0a1.421,1.421,0,0,0-1.276-.7h-.758v4.825h.758a1.485,1.485,0,0,0,1.219-.657,2.894,2.894,0,0,0,.5-1.792A3.1,3.1,0,0,0,743.3,371.27Zm0,0a1.421,1.421,0,0,0-1.276-.7h-.758v4.825h.758a1.485,1.485,0,0,0,1.219-.657,2.894,2.894,0,0,0,.5-1.792A3.1,3.1,0,0,0,743.3,371.27Zm0,0a1.421,1.421,0,0,0-1.276-.7h-.758v4.825h.758a1.485,1.485,0,0,0,1.219-.657,2.894,2.894,0,0,0,.5-1.792A3.1,3.1,0,0,0,743.3,371.27Z" transform="translate(-557.702 -300.998)" fill="#fff"/>
  <path id="Path_5" data-name="Path 5" d="M347.128,375.978c.289,4.021,3.8,5.937,7.815,5.937a22,22,0,0,0,7.659-1.276l1.132,6.573a24.655,24.655,0,0,1-10.038,1.916c-9.416,0-14.806-6.128-14.806-15.9,0-7.914,4.368-16.661,14.01-16.661,8.973,0,12.368,7.853,12.368,15.576a25.974,25.974,0,0,1-.289,3.832Zm10.151-6.64c0-2.362-.906-6.322-4.877-6.322-3.63,0-5.106,3.7-5.332,6.322Z" transform="translate(-287.225 -299.271)" fill="#fff"/>
  <path id="Path_6" data-name="Path 6" d="M447.336,367.231c0-3.893-.113-7.213-.226-9.957H454.6l.4,4.275h.171a9.939,9.939,0,0,1,8.565-4.979c5.67,0,9.925,4.214,9.925,13.4V388.5h-8.637V371.19c0-4.023-1.247-6.767-4.368-6.767a4.719,4.719,0,0,0-4.368,3.638,7.455,7.455,0,0,0-.339,2.426v18h-8.614Z" transform="translate(-364.121 -299.271)" fill="#fff"/>
  <path id="Path_7" data-name="Path 7" d="M251.008,194.368c-.544-.408-.981-.941-1.508-1.36s-.929-.868-1.4-1.279c-1.158-1.019-2.316-2.026-3.439-3.057-.646-.6-1.311-1.181-1.957-1.777-1.447-1.349-2.978-2.628-4.458-3.951-1.158-1.039-2.278-2.127-3.453-3.149-.512-.446-1-.921-1.5-1.372-1.549-1.381-3.115-2.747-4.657-4.133-1.158-1.042-2.275-2.13-3.456-3.146-.5-.428-.961-.892-1.447-1.326-1.068-.938-2.142-1.87-3.2-2.816-.672-.6-1.3-1.262-2-1.829-.512-.417-.964-.892-1.447-1.326-1.114-.987-2.252-1.948-3.337-2.967-.663-.617-1.389-1.158-2-1.829a4.016,4.016,0,0,0-.434-.321.425.425,0,0,0-.553-.017c-2.209,1.236-4.388,2.518-6.571,3.8-3.543,2.081-7.016,4.281-10.458,6.527-2.316,1.505-4.562,3.089-6.793,4.7q-2.359,1.7-4.631,3.52c-1.43,1.135-2.842,2.292-4.223,3.491-1.21,1.054-2.42,2.1-3.572,3.216-1.69,1.633-3.337,3.308-4.872,5.1-.808.941-1.586,1.9-2.347,2.895a41.18,41.18,0,0,0-2.706,3.971,35.169,35.169,0,0,0-2.162,4.223,24.7,24.7,0,0,0-1.685,5.7,36.474,36.474,0,0,0-.339,3.763c-.029.428.177.839.127,1.276a6.369,6.369,0,0,0,.177,1.812,23.7,23.7,0,0,0,2.952,8.027,40.28,40.28,0,0,0,5.954,7.757c1.158,1.2,2.35,2.379,3.6,3.5.556.5,1.111,1,1.673,1.485,1.21,1.048,2.455,2.052,3.708,3.051,1.586,1.265,3.184,2.512,4.788,3.763,1.016.787,2.058,1.54,3.062,2.342,1.482,1.181,3,2.316,4.432,3.557.92.8,1.887,1.543,2.753,2.4s1.815,1.763,2.634,2.735a13.817,13.817,0,0,1,2.605,4.243,6.657,6.657,0,0,1,.272,3.6,8.575,8.575,0,0,1-2.637,4.408,17.95,17.95,0,0,1-2.515,2.049,50.3,50.3,0,0,1-7.555,4.11c-2.24,1.03-4.544,1.9-6.851,2.756-2.562.952-5.173,1.769-7.778,2.605-.646.2-1.294.388-2.052.616.984.912,1.824,1.821,2.764,2.64,1.158,1.007,2.165,2.18,3.332,3.184,1.074.932,2.009,2.026,3.088,2.955,1.14.993,2.133,2.145,3.282,3.143,1.074.932,2.026,1.994,3.083,2.958,1.337,1.216,2.582,2.536,3.919,3.763.492.449.478.463,1.109.2L194.093,293c1.737-.721,3.473-1.433,5.187-2.171q3.207-1.372,6.4-2.785c2.107-.929,4.223-1.847,6.307-2.828,2.333-1.1,4.631-2.258,6.947-3.4,1.667-.819,3.346-1.615,4.947-2.553a49.677,49.677,0,0,0,6.423-4.269,21.513,21.513,0,0,0,4.843-5.167,8.973,8.973,0,0,0,1.479-4.651,8.873,8.873,0,0,0-1.5-4.851,18.986,18.986,0,0,0-4.793-5.022,49.212,49.212,0,0,0-7.526-4.663c-1.224-.634-2.475-1.221-3.728-1.8s-2.489-1.071-3.722-1.633a30.258,30.258,0,0,1-3.78-1.65,30.705,30.705,0,0,1-7.254-5.83,13.511,13.511,0,0,1-2.53-4.052,8.837,8.837,0,0,1-.608-4.119,12.525,12.525,0,0,1,2.1-5.584,28.223,28.223,0,0,1,3.983-4.669,56.573,56.573,0,0,1,4.6-3.89,96.068,96.068,0,0,1,8.649-5.818c2.391-1.447,4.814-2.866,7.277-4.2s4.95-2.727,7.448-4.052c1.78-.941,3.566-1.873,5.346-2.811,2.7-1.421,5.424-2.808,8.137-4.214.822-.425,1.641-.868,2.46-1.3a1.551,1.551,0,0,0,.2-.153A.787.787,0,0,0,251.008,194.368Zm-45.667-29.851c1.193-.634,2.385-1.271,3.569-1.922a.579.579,0,0,1,.773.069,13.255,13.255,0,0,0,1.158.868l-4.356,2.171a.607.607,0,0,1-.842-.1,4.132,4.132,0,0,0-.426-.327C204.75,164.855,204.762,164.823,205.341,164.517Zm-7.815,4.582c.894-.475,1.789-.949,2.692-1.4.339-.171.677-.521,1.03-.423.307.084.541.449.8.7a1.1,1.1,0,0,1,.394.5q-1.838.912-3.676,1.835a.365.365,0,0,1-.431-.058c-.289-.217-.579-.408-.868-.631s-.269-.344.078-.53Zm-7.656,5.21c.559-.417,1.132-.81,1.7-1.216.35-.249.709-.48,1.042-.75a.475.475,0,0,1,.672,0A8.146,8.146,0,0,1,194.6,173.5c-.695.518-1.418.868-2.1,1.308-.382.237-.8.411-1.158.674a.53.53,0,0,1-.761-.014c-.223-.188-.48-.336-.709-.518-.31-.26-.313-.405.012-.645Zm-7.268,5.355c.894-.718,1.792-1.427,2.683-2.142.391-.316.524-.342.868-.017a5.581,5.581,0,0,1,1.216,1.132l-2.77,2.09a.4.4,0,0,1-.061.032c-.964.7-.975.715-1.9-.023C181.86,180.13,181.785,180.321,182.6,179.664Zm-5.375,4.518a14.293,14.293,0,0,0,1.158-1.126c.376-.359.408-.353.784-.04s.686.579,1.054.842c.24.171.289.313.075.533q-1.32,1.32-2.631,2.646a.336.336,0,0,1-.475.069l-1.867-1.158C176.028,185.337,176.555,184.692,177.226,184.182Zm.981,5.144q2.316-2.333,4.77-4.5c1.592-1.4,3.265-2.706,4.906-4.052.489-.4,1.019-.75,1.523-1.132a.379.379,0,0,1,.544,0c.868.729,1.737,1.447,2.588,2.177q1.659,1.392,3.311,2.787,1.524,1.3,3.033,2.605c1.007.868,2.009,1.676,3.007,2.515.709.6,1.41,1.2,2.116,1.8l3.207,2.7c.724.614,1.447,1.236,2.162,1.847,1.03.868,2.07,1.737,3.1,2.605.724.611,1.447,1.227,2.165,1.838,1.051.889,2.1,1.777,3.161,2.654a6.791,6.791,0,0,0,1.187.984,12.783,12.783,0,0,1-1.85.837,45.278,45.278,0,0,0-4.293,2.185,52.224,52.224,0,0,0-4.434,2.871q-2.4,1.74-4.712,3.552c-.729.579-1.479,1.111-2.214,1.673a.394.394,0,0,1-.544-.023q-2.585-1.916-5.175-3.815-2.672-1.962-5.349-3.919-3.245-2.388-6.481-4.782-2.669-1.962-5.349-3.919l-4.75-3.473c-.469-.347-.469-.509-.081-.987a66.4,66.4,0,0,1,4.449-5.022Zm18.38,47.919c-.437-.732-.978-1.4-1.343-2.171l.09-.122c.55.234,1.091.5,1.65.7a4.116,4.116,0,0,1,2.356,1.887,12.607,12.607,0,0,0,.944,1.3c-.09.026-.142.061-.174.049l-3.042-1.282A.958.958,0,0,1,196.588,237.245Zm3.236,7.1a.261.261,0,0,1,.151.269c-.289-.148-.579-.272-.848-.417q-2.643-1.447-5.283-2.912c-2.1-1.158-4.214-2.278-6.275-3.5a28.554,28.554,0,0,1-2.837-2.072c-1.41-1.091-2.785-2.217-4.119-3.4-1-.883-1.994-1.771-2.923-2.718a53.4,53.4,0,0,1-5.61-6.588c-.457-.645-.9-1.3-1.349-1.948a.628.628,0,0,1-.151-.365,14.134,14.134,0,0,1,2.026,1.181q4.6,2.8,9.167,5.647,4.052,2.518,8.1,5.048c.634.394,1.256.8,1.91,1.158a.978.978,0,0,1,.5.672,15.247,15.247,0,0,0,3,5.789A23.017,23.017,0,0,0,199.824,244.348Zm-5.691-13.515c.368-.648.715-1.25,1.054-1.858a.258.258,0,0,1,.382-.136c.782.35,1.563.7,2.35,1.033.289.124.359.269.217.579-.26.547-.478,1.117-.712,1.676-.087.206-.208.26-.425.151C196.058,231.791,195.109,231.322,194.133,230.833Zm5.934-5.555a18.788,18.788,0,0,1-.868,2.026c-.952-.472-1.835-.926-2.73-1.352-.327-.156-.373-.342-.2-.64.261-.446.5-.906.764-1.349.1-.174.246-.321.5-.206q1.158.536,2.35,1.036a.307.307,0,0,1,.179.483Zm-1.213-8.206a17.135,17.135,0,0,0-5.578,7.2,20.474,20.474,0,0,0-1.372,4.793c-.156.955-.208,1.922-.388,2.874-.017.087,0,.182-.162.252-.368-.217-.773-.446-1.158-.695q-4.649-2.918-9.291-5.841-5.106-3.2-10.218-6.4c-.611-.385-1.224-.77-1.847-1.135a1.158,1.158,0,0,1-.55-.738,17.492,17.492,0,0,1-.7-5,27.524,27.524,0,0,1,.168-3.719,38.788,38.788,0,0,1,1-4.686,55.245,55.245,0,0,1,2.515-7.074c.1-.229.188-.457.31-.758a26.794,26.794,0,0,1,2.579,1.835c2.2,1.612,4.385,3.251,6.574,4.88,2.261,1.682,4.518,3.375,6.785,5.048,2.845,2.1,5.705,4.2,8.553,6.3q1.415,1.042,2.816,2.107c.4.307.4.446-.032.761ZM170.9,190.405c.359-.344.709-.7,1.062-1.051a.538.538,0,0,1,.475-.179.579.579,0,0,1,.191.09c.4.333.787.674,1.178,1.013a.324.324,0,0,1,.055.48c-.373.538-.744,1.077-1.12,1.612-.124.177-.258.122-.391,0-.478-.48-.958-.964-1.447-1.447a.31.31,0,0,1,0-.518Zm-4.362,6.53c.536-.666,1.062-1.334,1.589-2.006a3.917,3.917,0,0,1,.5-.631c.084-.072.15-.171.289-.185a.935.935,0,0,1,.226.107c.4.327.784.669,1.184,1a.362.362,0,0,1,.075.53c-.509.868-1.022,1.737-1.511,2.631-.159.289-.333.327-.6.165-.579-.359-1.14-.718-1.719-1.065C166.291,197.32,166.363,197.152,166.534,196.935Zm-2.793,6.035c.5-.868.993-1.757,1.508-2.672.417.226.674.533,1,.721a1.227,1.227,0,0,1,.672,1.447c-.142.79-.223,1.589-.327,2.362a.258.258,0,0,1-.289,0c-.79-.434-1.575-.868-2.365-1.305-.237-.136-.344-.278-.194-.541Zm-.816,5.6c-.229-.145-.206-.289-.1-.515a16.88,16.88,0,0,1,1-1.737c.718.524,1.366,1.01,2.026,1.476a.553.553,0,0,1,.266.729c-.185.579-.263,1.178-.489,1.786-.915-.588-1.8-1.161-2.7-1.728Zm4.307,8.053c-.162.206-.324.466-.657.237-.651-.443-1.3-.889-1.983-1.288a.773.773,0,0,1-.4-.8,2.569,2.569,0,0,1,.1-.891c1.022.715,1.986,1.375,2.932,2.055C167.5,216.129,167.492,216.277,167.231,216.618Zm3.424,6.229c-.266.371-.5.5-.761.333-.683-.437-1.355-.892-2.026-1.343a.663.663,0,0,1-.289-.44,2.605,2.605,0,0,1-.1-1.123c.191-.052.31.058.44.148.868.605,1.737,1.213,2.605,1.812.246.174.315.344.124.611Zm5.039,7.262a1.281,1.281,0,0,0-.185-.081,5.308,5.308,0,0,1-2.984-2.266c-.489-.579-1.1-1.068-1.546-1.7-.064-.09-.174-.148-.148-.316a14,14,0,0,1,1.841.289,3.225,3.225,0,0,1,2.292,1.491c.5.608,1.088,1.143,1.644,1.708A19.624,19.624,0,0,1,178.219,231Zm5.948,5.526c-.923-.64-1.858-1.268-2.79-1.9-.124-.084-.289-.148-.289-.388.909.182,1.806.365,2.7.55a1.717,1.717,0,0,1,.666.449c1,.79,1.98,1.612,2.967,2.423a9.671,9.671,0,0,1-3.256-1.132Zm3.647,3.288a.692.692,0,0,1-.368-.44c.579.119,1.1.249,1.63.324a4.11,4.11,0,0,1,2.255,1.088c.79.724,1.664,1.358,2.484,2.058a9.591,9.591,0,0,1-4.162-1.771,20.2,20.2,0,0,0-1.841-1.262Zm8.082,6.562c-.993-.7-2-1.389-3-2.087-.087-.061-.2-.1-.234-.26.932.188,1.855.368,2.773.579a1.036,1.036,0,0,1,.417.22c1.08.883,2.214,1.7,3.213,2.692a11.548,11.548,0,0,1-3.172-1.146Zm3.308,3.117c-.067-.058-.124-.127-.258-.266a9.261,9.261,0,0,1,4.938,2.779,1.954,1.954,0,0,1-2.026-.229c-.868-.776-1.769-1.525-2.657-2.287Zm6.443,8.151c-.452.289-.547.272-.889-.142q-1.291-1.563-2.576-3.123a1.155,1.155,0,0,1-.11-.232,15.374,15.374,0,0,1,2.374.579,1.818,1.818,0,0,1,.8.715,15.168,15.168,0,0,0,1.039,1.158c.307.327.289.417-.069.683C203.509,256.519,203.312,256.635,203.124,256.754Zm.179,3.853c-.269.5-.5,1.013-.773,1.508-.179.336-.272.344-.559.081s-.579-.579-.868-.868a.483.483,0,0,1-.084-.666c.289-.559.579-1.126.886-1.769a11.855,11.855,0,0,0,1.282,1.123.385.385,0,0,1,.116.6Zm-5.989,4.5c.443-.385.868-.781,1.317-1.158a1.216,1.216,0,0,1,.191-.107l.289.289c.839.8.839.8-.023,1.528-.747.628-.926.622-1.737-.043C197.152,265.432,197.1,265.3,197.314,265.107Zm-3.21,2.287c.124-.11.261-.032.353.078.214.258.426.518.634.784.1.136.043.255-.078.344-.431.318-.868.622-1.3.952a.315.315,0,0,1-.469,0c-.275-.223-.579-.423-.9-.657a12.273,12.273,0,0,1,1.757-1.5Zm-7.164,3.971c.478-.246.973-.469,1.447-.732.3-.171.483-.127.631.194.072.159.226.289.24.53-.66.33-1.343.657-2.026,1.01-.289.145-.353-.061-.469-.217C186.422,271.672,186.434,271.614,186.94,271.366Zm-6.614,2.565c.68-.289,1.355-.6,2.044-.868.289-.119.776.263.81.654a.272.272,0,0,1-.177.223c-.579.289-1.158.579-1.763.845a.977.977,0,0,1-1.091-.608C180.121,274.026,180.225,273.971,180.326,273.93Zm-6.7,2.379a6.157,6.157,0,0,1,1.384-.666,2.95,2.95,0,0,1,.318-.11c.9-.368.892-.362,1.334.495.122.234.055.333-.145.405-.423.153-.848.289-1.277.443-.975.327-.975.327-1.615-.573Zm19.6,16c-.6.243-1.23.434-1.829.692a.44.44,0,0,1-.631-.156c-.136-.2-.272-.405-.437-.645l2.588-1.187c.232-.107.391.029.527.185.2.234.617.4.579.7s-.515.289-.8.4Zm4.588-1.983c-.307.116-1.03-.35-1.091-.68a.249.249,0,0,1,.156-.272l2.064-1.039c.107-.052.232-.093.315,0,.289.339.755.5,1.051.935a18.424,18.424,0,0,1-2.5,1.051Zm7.815-3.184c-.423.206-.868.368-1.308.535-.6.234-.619.226-1-.289-.107-.145-.217-.289-.385-.5l2.316-1.158a.266.266,0,0,1,.313.041c.055.041.107.081.165.119.318.2.784.446.779.753s-.57.333-.883.486Zm1.737-3.951c-1.311.8-2.643,1.569-4.015,2.261a81,81,0,0,1-7.948,3.473c-1.795.674-3.609,1.308-5.4,2a.976.976,0,0,1-1.1-.2,1.71,1.71,0,0,1-.151-.139c-1.033-1.112-2.2-2.081-3.3-3.129-1.369-1.311-2.773-2.591-4.159-3.887-1.334-1.25-2.7-2.466-4.009-3.763-.5-.489-1.074-.9-1.546-1.421a1.265,1.265,0,0,1-.394-.538c.981-.289,1.9-.579,2.834-.868,1.806-.515,3.566-1.158,5.329-1.795a73.976,73.976,0,0,0,8.684-3.96.752.752,0,0,1,.912.084q3.992,2.964,7.992,5.919,3.161,2.316,6.336,4.631c.978.712.967.68-.075,1.334Zm2.605,1.815c-.188.1-.289-.026-.411-.127-.718-.579-.724-.579.061-1.071.46-.289.941-.536,1.4-.825a.558.558,0,0,1,.741.043,4.317,4.317,0,0,1,.825.7c-.88.541-1.789.836-2.628,1.268Zm8.16-4.093c-.822.324-1.592.755-2.385,1.138-.22.107-.327-.044-.469-.151-.787-.6-.784-.617.069-1.077.5-.266.987-.547,1.479-.825a.518.518,0,0,1,.339-.133,4.432,4.432,0,0,1,1.051.779c.081.081.026.208-.1.258Zm3.4-2.084a.472.472,0,0,1-.7-.087c-.214-.255-.466-.48-.732-.75.889-.686,1.786-1.274,2.675-1.873.229-.153.4,0,.55.107.362.263.7.55,1.158.9-1.062.588-2.015,1.143-2.961,1.69Zm3.329-7.526a24.169,24.169,0,0,1-3.676,4.052,28.043,28.043,0,0,1-4.767,3.436,50.6,50.6,0,0,1-4.857,2.42c-.206.09-.423.153-.6.217a.681.681,0,0,1-.457-.211c-1.181-.831-2.365-1.659-3.54-2.5-1.433-1.019-2.86-2.049-4.293-3.071l-7.41-5.254c-.411-.289-.411-.417.052-.634a18.9,18.9,0,0,0,4.157-2.657,15.847,15.847,0,0,0,3.523-4,13.03,13.03,0,0,0,1.245-2.316c.072-.217.214-.269.42-.151.139.081.289.142.425.211,2.107,1.054,4.2,2.139,6.325,3.149,3.416,1.618,6.765,3.372,10.171,5.01,1.016.492,2.026.978,3.051,1.479.521.258.533.342.206.8Zm5.63.489c-.868.776-1.7,1.6-2.605,2.339a.4.4,0,0,1-.593-.107c-.258-.289-.784-.333-.8-.836,0-.142.133-.226.217-.33q.8-.993,1.6-1.991c.3-.379.35-.4.776-.188s.889.44,1.329.663c.1.049.211.09.217.26a1.11,1.11,0,0,1-.159.174Zm2.84-4.084c-.353.55-.724,1.091-1.088,1.635-.127.194-.263.289-.492.1-.472-.382-.967-.735-1.447-1.106a.446.446,0,0,1-.148-.492c.151-.579.316-1.175.483-1.76a.24.24,0,0,1,.263-.2c.075.035.179.075.289.127.657.353,1.32.7,1.971,1.062.336.2.359.292.153.622Zm-1.563-6.11a1.821,1.821,0,0,1,1.158,1.1c.237.579.544,1.12.819,1.682l-.116.1c-.978-.388-1.96-.77-2.938-1.158a.869.869,0,0,1-.388-.255,25.633,25.633,0,0,1-1.708-2.747c1.045.408,2.087.868,3.158,1.256ZM222,254.424c1.78.767,3.54,1.589,5.323,2.359a3.085,3.085,0,0,1,.738.46c.538.44,1.059.9,1.589,1.352l-.072.136c-.889-.37-1.777-.738-2.666-1.114-1.329-.564-2.648-1.158-3.986-1.693a5.373,5.373,0,0,1-1.523-.868c-.579-.489-1.129-1-1.661-1.534A13.606,13.606,0,0,1,222,254.424Zm-6.287-4.518a.289.289,0,0,1-.272.136L210,248a2.8,2.8,0,0,0-.313-.124,5.931,5.931,0,0,1-3.253-2.391A68.059,68.059,0,0,1,215.709,249.905Zm-.075,3.913a36.079,36.079,0,0,1,6.139,3.954,17.611,17.611,0,0,1,3.575,3.763,7.963,7.963,0,0,1,1.511,4.556,8.246,8.246,0,0,1-.544,3.184c-.13.318-.289.362-.562.217-.889-.446-1.792-.868-2.689-1.294-2.292-1.085-4.55-2.235-6.837-3.326q-4.073-1.945-8.131-3.922l-2.449-1.158c-.289-.142-.478-.289-.339-.68a1.679,1.679,0,0,0,.049-.672,12.423,12.423,0,0,0-2.044-6.018,32.657,32.657,0,0,0-2.536-3.251,30.859,30.859,0,0,0-2.912-2.831,46.561,46.561,0,0,0-4.223-3.384.205.205,0,0,1-.127-.188.608.608,0,0,1,.4.127c2.249,1.123,4.515,2.211,6.741,3.378,4.953,2.591,10,5,14.973,7.552Zm-14.021-12.6c.229.1.452.2.686.289a9.127,9.127,0,0,1,2.741,2c-.09.153-.177.136-.258.1-1.253-.507-2.5-1.03-3.763-1.517a2.1,2.1,0,0,1-.776-.518c-.44-.449-.889-.891-1.334-1.334l.1-.119Zm.744-18.814a.411.411,0,0,1-.547.087l-2.382-1.4c-.159-.1-.133-.206-.038-.333a3.875,3.875,0,0,1,.68-.55c.5-.42,1.01-.822,1.508-1.242.168-.142.324-.237.544-.119a23.593,23.593,0,0,1,2.562,1.375c-.822.787-1.578,1.494-2.327,2.2Zm7.135-6.026c-.761.559-1.534,1.1-2.316,1.653-.142.1-.269.237-.48.127-.993-.527-2.07-.889-3.019-1.462-.017-.1,0-.168.067-.2,1.106-.651,2.214-1.294,3.317-1.948a.834.834,0,0,1,.935-.032c.724.405,1.476.755,2.243,1.14A1.9,1.9,0,0,1,209.492,216.381Zm6.22-4.938c-1.025.428-2,.955-2.993,1.447a.721.721,0,0,1-.81-.023c-.547-.359-1.12-.68-1.667-1.036-.266-.171-.261-.289.017-.431,1.381-.724,2.77-1.447,4.157-2.154a.579.579,0,0,1,.518-.075c.845.408,1.685.834,2.666,1.32-.735.373-1.3.7-1.893.952Zm10.525-5.934-4.565,2.22c-.136.064-.263.171-.437.064-.727-.446-1.447-.868-2.3-1.389,1.158-.614,2.2-1.158,3.233-1.708a4.78,4.78,0,0,0,.9-.466,1.2,1.2,0,0,1,1.644.038c.53.368,1.2.614,1.771.967.023.205-.142.22-.249.275Zm1-5.916c-1.511.816-3.028,1.621-4.472,2.553a.634.634,0,0,1-.894-.069c-1.019-.892-2.075-1.737-3.117-2.605q-1.923-1.6-3.853-3.184c-1.21-1.01-2.408-2.041-3.621-3.051-1.279-1.071-2.57-2.127-3.85-3.184-.935-.782-1.855-1.578-2.79-2.359-1.279-1.071-2.57-2.128-3.85-3.184-.952-.8-1.89-1.607-2.842-2.4-1-.839-2.026-1.661-3.019-2.5-.845-.709-1.682-1.427-2.605-2.2,1.138-.721,2.2-1.4,3.271-2.07,1.609-1,3.222-2,4.834-3l7.416-4.631c1.245-.779,2.5-1.549,3.722-2.353a.454.454,0,0,1,.686.064c1.525,1.447,3.12,2.808,4.66,4.238,1.389,1.288,2.825,2.527,4.22,3.812s2.831,2.5,4.229,3.795,2.822,2.533,4.22,3.812c1.352,1.233,2.718,2.446,4.076,3.673s2.782,2.507,4.171,3.763,2.874,2.544,4.264,3.867c.205.2.541.258.628.648-.533.206-1.065.434-1.612.617-2.573.868-5.083,1.876-7.572,2.944-2.142.92-4.255,1.907-6.3,3.016Zm8.744.831q-1.637.729-3.277,1.447c-.454.2-.915.388-1.355.617a.559.559,0,0,1-.68-.1c-.538-.44-1.065-.892-1.673-1.4,1.094-.556,2.162-.912,3.184-1.349.643-.289,1.3-.507,1.934-.808a.6.6,0,0,1,.729.1c.486.4.981.787,1.447,1.158,0,.258-.171.275-.315.336Zm7.752-3.934c-1.158.541-2.35,1.036-3.517,1.575a.533.533,0,0,1-.706-.11c-.324-.307-.709-.553-1.057-.834a1.479,1.479,0,0,1-.521-.579c.706-.3,1.4-.608,2.1-.9.958-.4,1.925-.77,2.877-1.178a.7.7,0,0,1,.868.119c.449.4.941.753,1.465,1.158a6.392,6.392,0,0,1-1.52.75Z" transform="translate(-160.4 -158.616)" fill="#fff"/>
  <path id="Path_8" data-name="Path 8" d="M350.812,474c0,.249-.116.22-.272.136A.29.29,0,0,0,350.812,474Z" transform="translate(-295.503 -382.711)" fill="#fff"/>
  <path id="Path_9" data-name="Path 9" d="M351.657,474.542a2.607,2.607,0,0,1-1.117-.376.29.29,0,0,0,.272-.136,3.436,3.436,0,0,1,.845.512Z" transform="translate(-295.503 -382.732)" fill="#fff"/>
  <path id="Path_10" data-name="Path 10" d="M195.435,372.981a.1.1,0,0,1-.055-.029c0-.006.032-.035.052.032Z" transform="translate(-185.255 -310.903)" fill="#fff"/>
</svg>
