<?xml version="1.0" standalone="no"?>
<!DOCTYPE svg PUBLIC "-//W3C//DTD SVG 20010904//EN"
 "http://www.w3.org/TR/2001/REC-SVG-20010904/DTD/svg10.dtd">
<svg version="1.0" xmlns="http://www.w3.org/2000/svg"
 width="844.000000pt" height="844.000000pt" viewBox="0 0 844.000000 844.000000"
 preserveAspectRatio="xMidYMid meet">
<metadata>
Created by potrace 1.14, written by Peter Selinger 2001-2017
</metadata>
<g transform="translate(0.000000,844.000000) scale(0.100000,-0.100000)"
fill="#000000" stroke="none">
<path d="M1975 6914 c-22 -13 -47 -27 -55 -31 -8 -4 -42 -23 -75 -43 -33 -20
-65 -39 -71 -41 -12 -5 -345 -210 -359 -222 -5 -4 -68 -47 -140 -94 -110 -73
-375 -264 -411 -298 -7 -5 -31 -26 -55 -45 -302 -243 -528 -492 -666 -736 -35
-62 -91 -188 -98 -219 -1 -5 -7 -29 -14 -52 -19 -70 -25 -123 -25 -228 0 -116
7 -161 41 -265 17 -54 84 -194 95 -198 4 -2 8 -8 8 -12 0 -11 57 -92 120 -173
51 -65 248 -260 330 -327 30 -25 57 -47 60 -50 3 -3 68 -55 145 -115 77 -60
142 -112 145 -115 3 -3 39 -30 81 -61 41 -31 82 -63 90 -70 8 -8 34 -30 59
-49 104 -80 231 -203 284 -273 130 -174 116 -331 -43 -472 -95 -84 -308 -201
-521 -285 -116 -46 -441 -158 -479 -165 -13 -2 -28 -8 -33 -13 -7 -7 97 -110
393 -392 26 -25 122 -117 214 -205 92 -88 170 -161 175 -163 5 -2 55 16 112
40 57 23 106 42 111 40 4 -1 7 3 7 8 0 6 6 10 13 10 12 0 414 171 547 232 174
81 221 104 376 181 326 162 501 285 616 432 110 141 124 281 42 421 -44 76
-168 193 -287 272 -100 66 -337 191 -447 235 -124 50 -219 95 -268 128 -24 16
-45 29 -48 29 -6 0 -54 42 -128 110 -210 196 -240 397 -91 619 49 72 145 176
230 246 26 22 53 45 59 50 57 55 340 241 546 359 92 52 114 64 250 138 36 20
85 47 110 60 68 38 196 105 395 208 221 114 308 160 318 170 4 4 -14 26 -40
49 -26 24 -77 69 -113 101 -36 32 -76 68 -90 80 -14 12 -47 43 -75 68 -27 26
-86 79 -130 117 -44 39 -87 77 -95 85 -8 8 -55 51 -105 95 -49 44 -97 87 -105
95 -8 8 -51 46 -95 85 -44 38 -94 83 -111 100 -17 16 -47 43 -65 59 -31 27
-198 177 -225 201 -6 6 -43 39 -84 75 -40 36 -83 74 -94 85 -71 66 -175 155
-182 154 -5 0 -27 -11 -49 -25z m10 -148 l28 -24 -93 -46 c-88 -44 -94 -46
-116 -31 -13 8 -24 19 -24 23 0 5 158 96 176 102 0 0 13 -11 29 -24z m245
-241 c25 -23 90 -81 145 -130 55 -50 105 -94 111 -100 6 -5 46 -41 89 -80 43
-38 88 -79 99 -90 12 -11 64 -58 116 -105 52 -47 104 -93 115 -103 11 -11 46
-42 78 -70 33 -29 80 -71 105 -95 26 -23 82 -73 124 -110 42 -37 77 -70 77
-73 1 -4 -41 -21 -91 -39 -185 -66 -306 -118 -483 -207 -148 -75 -168 -86
-175 -93 -3 -3 -20 -13 -39 -22 -38 -18 -32 -21 -122 65 -11 9 -23 17 -28 17
-5 0 -11 4 -13 8 -1 5 -73 67 -158 137 -85 71 -164 137 -175 146 -11 10 -162
136 -335 280 -401 333 -407 339 -381 339 5 0 42 22 83 48 40 27 80 51 88 55 8
4 75 45 149 92 73 47 138 85 142 85 5 0 9 5 9 10 0 6 4 10 9 10 5 0 73 40 152
90 l142 90 61 -58 c34 -31 82 -75 106 -97z m-556 23 c-3 -4 -37 -24 -76 -43
-66 -34 -72 -35 -94 -20 -13 8 -24 20 -24 25 0 5 35 27 77 49 l78 39 22 -21
c12 -12 19 -25 17 -29z m-319 -197 c0 -8 -9 -19 -20 -25 -11 -6 -22 -14 -25
-17 -3 -4 -24 -16 -48 -28 -40 -20 -43 -21 -67 -5 -14 9 -24 21 -23 25 2 5 30
28 63 53 l60 44 30 -17 c17 -9 30 -23 30 -30z m-302 -185 l26 -24 -56 -44
c-87 -66 -92 -68 -124 -49 -16 9 -29 21 -29 26 0 6 27 31 60 55 33 25 60 48
60 53 0 16 38 6 63 -17z m186 -113 c31 -27 67 -58 81 -69 101 -87 239 -204
259 -220 13 -10 28 -24 35 -30 6 -5 70 -59 141 -119 72 -60 135 -113 141 -119
14 -13 39 -35 123 -105 35 -29 70 -58 77 -64 6 -7 20 -19 30 -27 11 -8 63 -52
117 -97 l98 -83 -104 -49 c-57 -27 -135 -68 -173 -91 -60 -37 -270 -184 -284
-200 -10 -11 -116 -88 -134 -98 -16 -8 -27 -5 -55 16 -20 15 -38 29 -41 32 -3
3 -21 16 -40 30 -19 13 -39 28 -45 33 -5 4 -116 86 -245 180 -561 410 -685
502 -692 511 -13 19 125 174 312 351 86 81 314 265 329 265 8 0 39 -21 70 -47z
m-465 -109 l29 -26 -59 -59 c-32 -32 -61 -59 -64 -59 -3 0 -22 11 -44 23 l-38
24 63 61 c35 34 69 62 74 62 6 -1 23 -12 39 -26z m-261 -249 l28 -25 -22 -40
c-13 -22 -27 -40 -31 -40 -5 0 -24 15 -43 33 l-34 33 30 32 c17 18 33 32 37
32 4 0 20 -12 35 -25z m-117 -220 c6 -14 -56 -135 -69 -135 -9 0 -87 51 -87
57 0 3 21 31 46 63 l46 59 30 -15 c16 -8 31 -21 34 -29z m2963 7 l34 -28 -64
-29 c-35 -16 -66 -30 -69 -31 -3 0 -22 -8 -43 -18 -36 -16 -39 -16 -66 3 -58
42 -57 44 52 88 56 23 107 42 112 43 6 0 26 -13 44 -28z m-2791 -134 c2 -4 7
-8 12 -8 7 0 240 -170 320 -233 8 -7 69 -52 135 -100 66 -49 131 -97 145 -107
14 -10 99 -74 190 -141 91 -67 169 -125 175 -130 5 -6 -15 -31 -54 -67 -81
-73 -153 -181 -190 -286 -29 -82 -36 -110 -47 -196 -10 -72 -11 -75 -21 -73
-12 2 -87 48 -262 158 -73 47 -138 85 -142 85 -5 0 -9 3 -9 8 0 4 -8 12 -19
17 -39 21 -127 74 -138 84 -7 6 -17 11 -23 11 -5 0 -10 5 -10 10 0 6 -5 10
-11 10 -6 0 -30 14 -54 30 -24 17 -48 30 -53 30 -6 0 -12 3 -14 8 -1 4 -39 30
-83 57 -44 27 -85 56 -92 65 -28 37 -44 247 -28 365 14 97 78 331 96 350 5 5
9 15 9 23 0 7 12 38 26 67 l25 55 57 -42 c31 -23 59 -45 60 -50z m2459 -71
c-1 -5 -27 -19 -57 -32 -30 -12 -76 -32 -102 -43 l-46 -21 -39 34 -38 33 25
10 c14 6 63 26 110 45 l84 35 33 -26 c19 -13 32 -29 30 -35z m-2784 -41 c16
-18 18 -31 12 -81 -4 -33 -8 -61 -9 -63 -2 -1 -28 12 -59 29 -60 35 -60 35
-20 106 26 45 42 47 76 9z m2347 -131 c28 -14 50 -28 50 -30 0 -3 -46 -27
-101 -54 l-102 -49 -43 26 c-24 15 -44 29 -44 32 0 6 170 98 183 99 4 1 30
-10 57 -24z m-2372 -132 c13 -12 8 -71 -7 -86 -9 -9 -41 1 -41 14 0 5 -5 9
-11 9 -6 0 -24 9 -39 20 -28 20 -28 21 -12 53 8 17 20 35 26 39 9 6 54 -20 84
-49z m2025 -84 c20 -11 37 -21 37 -23 0 -7 -191 -96 -206 -96 -16 0 -84 42
-84 52 0 3 24 18 53 32 28 15 68 35 87 46 37 21 51 20 113 -11z m-2055 -179
c4 0 21 -12 37 -26 17 -14 36 -29 43 -33 15 -8 6 -41 -12 -41 -24 1 -106 70
-106 91 0 15 4 19 16 15 9 -3 19 -6 22 -6z m1747 -21 c22 -12 44 -25 48 -29 5
-4 -21 -29 -58 -55 -62 -45 -68 -47 -93 -35 -15 8 -29 14 -32 15 -13 3 -71 37
-68 40 11 10 145 85 153 85 6 0 28 -9 50 -21z m-224 -180 c16 -11 29 -17 29
-13 0 3 7 1 16 -6 13 -12 8 -19 -37 -61 l-53 -48 -40 25 c-23 14 -48 29 -56
34 -12 8 -7 17 30 49 51 46 70 49 111 20z m-1383 -59 c12 -11 25 -20 29 -20
19 -1 55 -41 49 -55 -8 -21 -20 -19 -67 10 -32 21 -59 57 -59 81 0 11 29 2 48
-16z m207 -67 c49 -31 101 -63 115 -72 14 -9 34 -21 45 -27 23 -13 405 -250
480 -298 28 -18 58 -35 68 -39 9 -3 21 -17 26 -29 74 -188 109 -237 267 -377
27 -24 42 -39 34 -34 -18 12 -70 41 -195 108 -305 164 -432 252 -611 421 -24
23 -44 40 -44 38 0 -1 -24 23 -52 54 -29 31 -58 61 -64 67 -6 5 -39 46 -73 90
-35 44 -68 87 -74 95 -7 8 -20 28 -31 44 -18 28 -18 29 0 22 10 -4 59 -32 109
-63z m1051 -95 c4 -4 -23 -77 -31 -86 -4 -5 -125 49 -125 55 0 10 34 69 43 74
8 6 99 -29 113 -43z m-1103 -43 c22 -3 47 -11 56 -18 21 -14 161 -164 161
-172 0 -4 -68 20 -142 50 -16 6 -138 138 -138 149 0 3 6 3 13 1 6 -2 29 -7 50
-10z m982 -137 c50 -24 51 -28 27 -77 -20 -39 -15 -39 -87 -5 l-54 26 20 39
c23 45 32 47 94 17z m-639 -178 c25 -10 94 -60 132 -97 18 -18 1 -16 -50 4
-40 16 -178 101 -178 110 0 6 64 -5 96 -17z m707 -116 c16 -16 35 -41 43 -56
l14 -27 -66 28 c-65 28 -104 63 -118 108 l-7 22 52 -23 c29 -12 66 -36 82 -52z
m-424 -105 c66 -49 110 -85 111 -91 0 -11 -104 25 -120 42 -3 3 -31 22 -62 44
-32 21 -58 40 -58 41 0 8 112 -24 129 -36z m477 -43 c16 -8 51 -24 78 -36 106
-47 151 -101 53 -63 -102 40 -121 51 -145 77 -33 39 -31 44 14 22z m-138 -149
c883 -442 950 -479 1074 -602 93 -92 136 -185 133 -285 -1 -36 -9 -79 -16 -96
l-14 -32 -130 64 c-71 34 -233 113 -360 174 -372 179 -338 157 -340 215 -5
132 -71 250 -236 425 -27 28 -170 147 -209 173 -45 31 -10 18 98 -36z m-143
12 c43 -20 125 -86 125 -100 0 -20 -133 48 -218 112 l-23 18 38 -6 c21 -3 56
-14 78 -24z m591 -84 c10 -8 25 -15 32 -15 13 0 272 -126 282 -137 7 -8 -42 4
-77 19 -15 6 -32 12 -38 14 -88 26 -198 79 -224 108 -27 29 -10 37 25 11z
m-376 -119 c68 -33 114 -71 105 -85 -3 -5 -13 -8 -23 -6 -9 2 -20 4 -23 4 -6
1 -57 43 -103 84 -30 27 -30 28 -6 22 14 -4 36 -13 50 -19z m181 -231 c41 -40
50 -65 24 -65 -8 0 -15 -4 -15 -10 0 -5 -6 -10 -14 -10 -15 0 -128 134 -120
143 13 12 90 -23 125 -58z m842 -20 c81 -36 156 -73 168 -83 54 -45 62 -52 55
-52 -4 0 -78 31 -164 68 -102 45 -168 80 -189 100 -17 18 -28 32 -25 32 4 0
74 -29 155 -65z m-839 -234 c-22 -52 -27 -54 -58 -22 l-28 29 22 42 22 42 28
-27 c28 -27 29 -29 14 -64z m1095 4 c35 -13 70 -30 78 -36 15 -13 55 -90 49
-96 -7 -7 -112 42 -131 61 -21 22 -70 96 -63 96 2 0 33 -11 67 -25z m-696
-148 c183 -90 347 -170 365 -178 17 -7 32 -17 32 -21 0 -5 7 -8 15 -8 20 0 65
-29 65 -42 0 -11 -71 -100 -106 -133 -111 -104 -209 -170 -351 -238 l-102 -49
-131 94 c-73 51 -139 98 -148 103 -9 6 -19 12 -22 16 -3 3 -27 21 -55 40 -27
18 -54 38 -60 42 -5 4 -41 30 -80 57 -137 96 -147 105 -133 113 88 51 145 89
184 122 51 43 142 160 165 213 8 17 18 32 22 32 5 0 158 -73 340 -163z m-543
14 c13 -25 5 -46 -25 -59 -19 -9 -28 -8 -46 7 l-21 17 32 27 c38 32 46 33 60
8z m1310 -86 c28 -14 50 -29 50 -33 0 -16 -51 -82 -63 -82 -8 0 -26 13 -41 29
-21 22 -26 35 -21 51 4 12 9 30 10 39 5 22 4 21 10 21 3 0 28 -11 55 -25z
m-1486 -77 c-3 -4 -17 -16 -33 -27 -26 -19 -30 -19 -50 -4 l-23 15 39 34 38
33 17 -22 c9 -12 14 -25 12 -29z m-240 -118 c-5 -4 -26 -15 -46 -23 -31 -13
-39 -13 -48 -2 -12 14 -11 15 60 52 21 11 26 10 33 -3 5 -9 5 -20 1 -24z
m1624 -45 c-73 -69 -73 -69 -102 -50 -29 19 -28 22 28 88 l39 47 39 -22 39
-22 -43 -41z m-1033 -265 c72 -52 136 -100 142 -107 7 -6 18 -13 25 -15 54
-18 -254 -174 -599 -302 -67 -26 -130 -46 -138 -46 -9 0 -40 24 -70 53 -29 28
-79 76 -111 105 -33 30 -113 104 -178 165 -236 221 -221 203 -176 212 93 18
372 122 535 200 l129 62 156 -116 c85 -64 214 -159 285 -211z m-825 220 c0 -4
-21 -17 -47 -28 -34 -15 -51 -17 -60 -10 -21 17 -15 24 34 46 34 15 51 17 60
10 7 -6 13 -14 13 -18z m-260 -96 c0 -8 -14 -17 -30 -21 -17 -3 -33 -9 -35
-13 -7 -12 -43 0 -49 16 -3 9 3 18 17 23 12 5 33 13 47 19 27 11 50 0 50 -24z
m1910 -39 c0 -2 -29 -20 -65 -40 -64 -36 -65 -36 -86 -17 l-20 20 33 24 c77
57 80 58 111 36 15 -11 27 -21 27 -23z m-264 -129 c23 -17 23 -17 -42 -49 -50
-25 -52 -26 -68 -8 -19 21 -20 19 39 53 37 21 46 22 71 4z m-228 -118 c19 -19
15 -23 -38 -47 -85 -38 -114 -4 -35 41 36 21 57 22 73 6z m-245 -112 c28 -21
20 -32 -37 -51 -46 -16 -57 -17 -71 -5 -18 15 -14 20 40 49 46 24 45 24 68 7z
m-233 -125 c0 -4 -22 -17 -50 -28 -48 -20 -51 -21 -72 -4 l-22 18 50 25 c44
22 51 23 72 10 12 -8 22 -17 22 -21z m-269 -81 c31 -17 22 -34 -30 -53 -60
-21 -77 -21 -85 -1 -4 11 3 19 24 27 16 6 30 15 30 20 0 4 4 6 9 2 5 -3 12 -1
16 5 8 13 12 13 36 0z"/>
<path d="M4658 5058 c-3 -11 -3 -312 1 -328 2 -11 332 -5 339 7 6 9 7 172 3
306 l-1 27 -169 0 c-126 0 -170 -3 -173 -12z"/>
<path d="M2550 4647 c-3 -3 -21 -7 -40 -10 -128 -18 -283 -136 -350 -266 -95
-187 -120 -430 -64 -622 23 -79 88 -192 140 -245 60 -60 152 -109 248 -134 62
-16 107 -19 217 -18 76 1 139 6 139 11 0 4 4 6 8 3 10 -6 157 35 190 53 15 8
21 18 18 34 -6 26 -17 91 -22 127 -2 14 -6 34 -8 45 -3 11 -5 30 -5 42 -1 21
-2 21 -53 7 -75 -21 -76 -21 -148 -29 -105 -12 -198 -7 -255 15 -77 29 -150
104 -161 165 -3 16 -7 32 -9 36 -3 4 1 9 8 11 6 2 168 3 360 3 235 -1 347 2
348 10 46 389 -93 679 -359 749 -46 13 -193 22 -202 13z m162 -289 c42 -32 76
-100 84 -168 l5 -50 -204 0 c-159 0 -205 3 -203 13 10 52 21 88 40 122 26 50
42 67 86 94 50 32 144 26 192 -11z"/>
<path d="M3867 4630 c-84 -26 -165 -85 -208 -150 -9 -14 -19 -23 -22 -20 -2 3
-7 38 -11 79 -3 41 -7 76 -10 78 -2 2 -69 5 -148 6 l-144 2 3 -615 c1 -338 2
-620 2 -626 1 -7 55 -11 171 -10 l170 0 1 70 c0 39 0 215 1 391 0 287 2 325
19 369 10 27 28 60 41 73 49 52 137 70 199 41 47 -23 65 -48 85 -115 15 -50
18 -111 18 -443 l1 -385 173 -1 172 -1 0 186 c1 407 -1 623 -6 673 -21 205
-135 366 -285 405 -57 14 -165 11 -222 -7z"/>
<path d="M4662 4615 c-7 -11 -9 -1234 -2 -1236 3 -1 80 -3 173 -4 145 -1 167
1 168 14 4 83 1 1223 -4 1227 -10 11 -328 10 -335 -1z"/>
<path d="M5166 4605 c19 -64 107 -333 114 -350 4 -11 27 -81 50 -155 44 -142
54 -173 66 -205 4 -11 9 -26 11 -32 1 -7 5 -19 6 -25 2 -7 7 -20 10 -28 3 -8
33 -103 67 -210 34 -107 65 -202 70 -210 6 -12 36 -15 171 -16 172 -1 189 1
189 20 0 6 59 189 131 406 72 217 132 400 133 405 2 6 6 17 9 25 19 49 116
351 119 370 l3 23 -155 -1 c-208 -1 -210 -1 -208 -9 1 -5 -4 -31 -11 -59 -7
-29 -14 -60 -16 -70 -2 -11 -4 -21 -5 -24 -1 -3 -3 -9 -5 -15 -1 -5 -3 -12 -4
-15 -2 -3 -4 -12 -6 -20 -1 -8 -25 -107 -53 -220 -28 -113 -53 -219 -56 -235
-31 -166 -44 -218 -49 -195 -4 14 -15 70 -27 125 -11 55 -25 118 -31 140 -6
22 -14 56 -18 76 -4 19 -10 40 -14 46 -3 5 -8 23 -11 39 -3 16 -13 56 -22 89
-8 33 -17 67 -19 76 -2 9 -8 33 -13 53 -6 20 -8 36 -5 36 3 0 1 6 -4 13 -5 6
-18 47 -28 90 l-19 77 -36 1 c-315 6 -340 5 -334 -16z"/>
<path d="M6750 4619 c-128 -14 -237 -107 -268 -228 -15 -60 -14 -788 1 -839
34 -116 134 -202 254 -220 60 -9 1404 -7 1456 2 88 15 174 83 218 171 l24 50
0 420 0 420 -27 53 c-49 93 -132 155 -228 168 -63 8 -1355 11 -1430 3z m1484
-73 c74 -31 126 -101 133 -181 l3 -40 -24 45 c-41 76 -137 152 -212 166 -25 5
-32 9 -22 15 20 13 85 11 122 -5z m-52 -315 c39 -15 87 -68 97 -110 33 -125
-46 -238 -168 -239 -144 -2 -225 127 -165 265 36 83 141 120 236 84z m-1382
-90 c16 -54 30 -103 30 -111 0 -30 18 9 50 108 l33 102 42 0 c46 0 59 -7 46
-24 -7 -10 -100 -286 -104 -311 -3 -15 -28 -22 -72 -20 -61 4 -62 4 -63 18 0
6 -24 77 -52 157 -70 198 -70 181 0 179 l60 -2 30 -96z m356 -78 c1 -120 -2
-173 -10 -175 -6 -2 -31 -4 -56 -3 l-45 0 -2 165 c-1 91 0 171 3 178 3 10 19
13 56 10 l53 -3 1 -172z m309 156 c63 -31 90 -79 90 -159 0 -57 -4 -72 -27
-102 -41 -53 -87 -71 -193 -73 -49 -1 -95 0 -100 2 -8 3 -14 305 -6 346 0 4
45 7 99 6 75 0 106 -5 137 -20z m431 -14 c0 -16 -1 -34 -3 -40 -2 -6 -39 -9
-87 -8 -79 1 -83 0 -82 -20 1 -31 9 -34 75 -31 56 2 59 1 64 -24 9 -45 0 -52
-68 -52 -65 0 -82 -11 -69 -45 5 -12 24 -15 85 -15 43 0 80 -3 80 -7 5 -27 6
-59 3 -68 -3 -6 -57 -10 -142 -10 l-137 1 -2 177 -2 177 142 -3 142 -2 1 -30z
m-1132 -385 c59 -22 36 -97 -31 -102 -30 -2 -33 -5 -33 -33 0 -25 -4 -31 -25
-33 -14 -1 -26 4 -26 11 -4 33 -5 153 -1 160 5 10 86 9 116 -3z m191 -2 c30
-13 34 -52 9 -80 -12 -12 -14 -21 -7 -30 6 -7 14 -23 17 -35 6 -19 3 -22 -23
-21 -25 1 -33 7 -43 35 -12 33 -27 44 -29 21 -1 -7 -2 -22 -3 -33 -1 -14 -8
-20 -26 -20 -24 0 -25 3 -27 75 -1 41 0 81 2 88 6 16 95 16 130 0z m180 0 c48
-21 50 -113 4 -150 -40 -33 -109 -16 -129 32 -35 86 40 157 125 118z m175 2
c0 -6 6 -10 14 -10 20 0 26 -12 32 -64 5 -41 3 -45 -28 -69 -45 -33 -117 -33
-129 1 -5 13 -5 22 2 22 6 0 6 7 2 18 -7 14 -9 73 -4 103 2 11 111 10 111 -1z
m129 -51 c0 -65 10 -86 35 -76 12 5 16 22 16 72 0 58 2 65 20 65 22 0 23 -1
22 -84 -1 -70 -17 -91 -69 -94 -59 -3 -75 16 -79 94 -4 77 -1 84 31 84 22 0
23 -4 24 -61z m249 45 c30 -21 29 -54 -2 -54 -13 0 -26 7 -30 15 -5 15 -35 21
-37 8 -1 -5 -3 -25 -4 -45 -2 -40 21 -60 40 -36 11 15 52 21 59 10 10 -17 -31
-53 -66 -58 -32 -6 -41 -2 -66 23 -22 21 -29 37 -27 59 5 49 9 58 35 76 31 22
69 23 98 2z m162 -4 c0 -13 -7 -20 -20 -20 -11 0 -19 -3 -19 -7 1 -5 1 -35 0
-68 -1 -58 -2 -61 -26 -61 -15 0 -25 6 -26 16 -1 8 -2 33 -4 55 -3 64 -4 67
-19 62 -9 -4 -13 2 -13 18 0 21 4 23 63 24 58 1 64 -1 64 -19z m73 -43 c-1
-34 -2 -75 -2 -90 -1 -24 -4 -27 -28 -24 -28 4 -28 4 -26 78 0 41 1 80 2 87 1
6 13 12 29 12 27 0 27 -1 25 -63z m167 40 c35 -36 36 -88 4 -126 -56 -67 -163
-11 -148 79 11 63 100 93 144 47z m104 17 c9 -3 16 -11 16 -16 0 -10 39 -64
41 -57 0 2 2 20 2 39 2 28 6 36 25 38 22 3 23 2 20 -84 -3 -79 -5 -87 -23 -90
-15 -2 -28 9 -49 41 -15 25 -31 47 -35 49 -3 2 -6 -17 -6 -42 0 -40 -3 -47
-21 -50 -19 -3 -20 1 -19 78 1 44 2 85 3 90 2 11 23 13 46 4z"/>
<path d="M8078 4150 c-18 -15 -23 -29 -25 -77 -2 -74 13 -108 50 -109 42 -2
59 30 58 108 -2 79 -39 114 -83 78z"/>
<path d="M7340 4070 c0 -106 4 -114 51 -98 34 12 47 43 45 101 -2 53 -17 73
-64 86 l-32 10 0 -99z"/>
<path d="M6700 3777 c0 -8 3 -17 6 -20 10 -9 46 12 39 24 -9 14 -45 11 -45 -4z"/>
<path d="M6877 3776 c-7 -18 29 -28 43 -12 5 7 7 16 3 19 -11 12 -41 7 -46 -7z"/>
<path d="M7064 3765 c-8 -34 3 -75 21 -75 15 0 32 27 29 48 -1 6 -2 21 -3 32
-2 30 -39 26 -47 -5z"/>
<path d="M7257 3783 c-3 -7 -2 -82 2 -91 0 -1 10 2 21 8 20 11 26 43 14 74 -6
16 -30 22 -37 9z"/>
<path d="M8020 3786 c-15 -18 -16 -74 -2 -88 5 -5 16 -6 25 -2 21 8 23 62 4
88 -12 16 -14 16 -27 2z"/>
</g>
</svg>
